<svg xmlns="http://www.w3.org/2000/svg" viewBox="-4 -4 110 110">
    <style>
    .logo { fill:#0B2340; }
    .dark .logo { fill:#FCFCEA; }
    @media (prefers-color-scheme: dark) {
        .logo { fill: #FCFCEA }
    }
    </style>
    <path class="logo" d="M77.58 91.66a1.32 1.32 0 0 1 .7 2.43 51.05 51.05 0 0 1-54.58 0 1.32 1.32 0 0 1 .71-2.43h53.17Zm23.58-39.83H61.78c-.71 0-1.3.58-1.3 1.3v.03c0 .71.59 1.3 1.3 1.3h38.66a1.3 1.3 0 0 1 1.32 1.44 50.74 50.74 0 0 1-3.27 13.68c-.2.5-.68.84-1.21.85H80.2c-.72 0-1.3.58-1.3 1.3v.03c0 .72.58 1.3 1.3 1.3h14.65A1.32 1.32 0 0 1 96.01 75a51 51 0 0 1-10.66 13.69 1.3 1.3 0 0 1-.87.34H17.5a1.3 1.3 0 0 1-.87-.34A50.97 50.97 0 0 1 6 74.99a1.3 1.3 0 0 1 1.16-1.92H21.8c.7 0 1.3-.6 1.3-1.3v-.04c0-.72-.6-1.3-1.3-1.3H4.72a1.3 1.3 0 0 1-1.21-.83C1.79 65.2.69 60.6.25 55.9c-.02-.2.01-.42.1-.62.19-.5.67-.82 1.2-.82H21.8c.71 0 1.3-.59 1.3-1.3v-.03c0-.72-.59-1.3-1.3-1.3H.83A.83.83 0 0 1 0 51v-.02c0-4.8.66-9.56 1.99-14.17.16-.56.68-.95 1.26-.95H21.8c.72 0 1.3-.59 1.3-1.3v-.03c0-.72-.58-1.3-1.3-1.3H5.1a1.3 1.3 0 0 1-1.2-1.8 51 51 0 0 1 8.45-13.71c.25-.3.62-.46 1-.46h75.32c.38 0 .74.17.99.45A50.91 50.91 0 0 1 98.1 31.4c.17.4.13.87-.12 1.23-.24.36-.65.59-1.09.6H80.2c-.71 0-1.3.58-1.3 1.3v.03c0 .72.59 1.3 1.3 1.3h18.54c.59 0 1.1.39 1.27.95 1.33 4.6 2 9.38 2 14.17V51c0 .46-.38.84-.83.84h-.01ZM44.04 36.3c.72 0 1.32.6 1.32 1.32v1.26c0 .71.59 1.3 1.3 1.3h8.68c.72 0 1.31-.6 1.31-1.32V37.6c0-.72.6-1.3 1.31-1.3h4.49c.72 0 1.3.58 1.3 1.3v1.26c0 .73.6 1.32 1.32 1.32h8.68c.71 0 1.3-.59 1.3-1.3v-1.7l.01-.27v-6.72c0-.72-.6-1.32-1.32-1.32h-8.67c-.72 0-1.31.6-1.32 1.32v1.27c0 .72-.6 1.32-1.32 1.32h-4.46c-.73 0-1.32-.6-1.32-1.32V30.2c0-.72-.6-1.31-1.31-1.32h-8.67c-.72 0-1.32.6-1.32 1.32v1.27c0 .72-.6 1.31-1.31 1.32h-4.48c-.73 0-1.32-.6-1.32-1.32V30.2c0-.72-.6-1.32-1.32-1.32h-8.66c-.72.01-1.31.6-1.32 1.32v1.7l-.01.28v4.74l.01.19v1.76c0 .73.6 1.32 1.32 1.32h1.26c.73 0 1.32.6 1.32 1.32v4.66c0 .72-.6 1.32-1.31 1.32h-1.27c-.72 0-1.31.6-1.32 1.32v1.7l-.01.27v4.74l.01.2v1.76c0 .72.6 1.31 1.32 1.31h1.26c.73 0 1.32.6 1.32 1.32v4.66c0 .73-.6 1.32-1.32 1.32h-1.26c-.72 0-1.31.6-1.32 1.32v1.7l-.01.28v4.74l.01.19v1.76c0 .72.6 1.32 1.32 1.32h8.68c.71 0 1.3-.6 1.3-1.3v-1.27c0-.72.6-1.32 1.32-1.32h4.48c.72 0 1.32.6 1.32 1.32v1.26c0 .72.59 1.3 1.3 1.3h8.68c.72 0 1.31-.59 1.31-1.31v-1.26c0-.72.6-1.3 1.31-1.3h4.49c.72 0 1.3.58 1.3 1.3v1.26c0 .72.6 1.32 1.32 1.32h8.68c.71 0 1.3-.6 1.3-1.31v-1.7l.01-.26V67.4c0-.72-.6-1.32-1.32-1.32h-8.67c-.72 0-1.31.6-1.32 1.32v1.27c0 .72-.6 1.31-1.31 1.31h-4.47c-.73 0-1.32-.59-1.32-1.31V67.4c0-.72-.6-1.31-1.31-1.32h-8.67c-.72 0-1.32.6-1.32 1.32v1.27c0 .72-.6 1.3-1.31 1.31h-4.48c-.73 0-1.32-.6-1.32-1.31V67.4c0-.72-.6-1.32-1.32-1.32h-1.26a1.3 1.3 0 0 1-1.3-1.3V60.1c0-.72.59-1.32 1.3-1.32h1.27c.72 0 1.3-.58 1.3-1.3v-1.26c0-.73.6-1.32 1.32-1.32h4.49c.72 0 1.31.6 1.31 1.32v1.26c0 .72.6 1.31 1.3 1.31h8.68c.72 0 1.3-.59 1.3-1.3v-8.7c0-.7-.57-1.29-1.27-1.3h-8.7c-.71 0-1.3.59-1.3 1.31v1.27c-.01.72-.6 1.31-1.32 1.32h-4.48c-.73 0-1.32-.6-1.32-1.32V48.8c0-.72-.6-1.31-1.32-1.31h-1.26c-.72 0-1.3-.6-1.3-1.31V41.5c0-.72.59-1.31 1.3-1.31h1.27c.72 0 1.3-.6 1.3-1.3v-1.27c0-.72.6-1.32 1.32-1.32h4.49ZM18.6 14.61a1.32 1.32 0 0 1-.86-2.31 51.12 51.12 0 0 1 66.5 0 1.32 1.32 0 0 1-.85 2.31H18.6Z" />
</svg>
